<?xml version="1.0" standalone="no"?>
<!DOCTYPE svg PUBLIC "-//W3C//DTD SVG 1.1//EN" "http://www.w3.org/Graphics/SVG/1.1/DTD/svg11.dtd" >
<svg xmlns="http://www.w3.org/2000/svg">
<metadata>Generated by IcoMoon</metadata>
<defs>
<font id="icomoon" horiz-adv-x="1024">
<font-face units-per-em="1024" ascent="960" descent="-64" />
<missing-glyph horiz-adv-x="1024" />
<glyph unicode="&#x20;" horiz-adv-x="512" d="" />
<glyph unicode="&#x21;" glyph-name="uni21" d="M510 516l-380-200v-130l380 200 390-200v130l-390 200zM510 836l-380-200v-130l380 200 390-200v130l-390 200z" />
<glyph unicode="&#x22;" glyph-name="uni22" d="M384 416c0-22.4 32-44.8 64-44.8h128c32 0 64 22.4 64 44.8 0 22.368-32 44.8-64 44.8h-128c-32 0-64-22.432-64-44.8zM736 640c-46.016 0-92.096-37.248-122.88-90.016 21.344-2.112 42.432-17.12 58.88-39.008 17.76 23.712 40.832 39.424 64 39.424h128c48 0 96-67.232 96-134.4s-48-134.4-96-134.4h-128c-23.168 0-46.24 15.712-64 39.424-16.448-21.856-37.536-36.864-58.88-38.976 30.784-52.8 76.864-90.048 122.88-90.048h128c80 0 160 112 160 224s-80 224-160 224h-128zM288 192c46.016 0 92.096 37.248 122.88 90.048-21.376 2.080-42.432 17.12-58.88 38.976-17.792-23.712-40.864-39.424-64-39.424h-128c-48 0-96 67.232-96 134.4s48 134.4 96 134.4h128c23.136 0 46.208-15.712 64-39.424 16.448 21.888 37.504 36.864 58.88 39.008-30.784 52.768-76.864 90.016-122.88 90.016h-128c-80 0-160-112-160-224s80-224 160-224h128z" />
<glyph unicode="&#x23;" glyph-name="uni23" d="M2-62.542l507.692 1021.076 512.308-1021.076h-1020z" />
<glyph unicode="&#x24;" glyph-name="uni24" d="M512 960c-282.784 0-512-229.248-512-512s229.216-512 512-512 512 229.248 512 512c0 282.752-229.216 512-512 512zM512 64c-212.064 0-384 171.936-384 384s171.936 384 384 384 384-171.936 384-384-171.936-384-384-384zM736 512h-160v224c0 17.664-14.304 32-32 32h-64c-17.696 0-32-14.336-32-32v-320c0-17.696 14.304-32 32-32h256c17.696 0 32 14.304 32 32v64c0 17.696-14.304 32-32 32z" />
<glyph unicode="&#x25;" glyph-name="uni25" d="M192 64l-192 192 512 512 512-512-192-192-320 320-320-320z" />
<glyph unicode="&#x26;" glyph-name="uni26" d="M128 128l192-192 512 512-512 512-192-192 320-320-320-320z" />
<glyph unicode="&#x27;" glyph-name="uni27" d="M832 128l-192-192-512 512 512 512 192-192-320-320 320-320z" />
<glyph unicode="&#x28;" glyph-name="uni28" d="M192 768l-192-192 512-512 512 512-192 192-320-320-320 320z" />
<glyph unicode="&#x29;" glyph-name="uni29" d="M1 959l1022-511-1022-511z" />
<glyph unicode="&#x2a;" glyph-name="uni2A" d="M1023 959v-1022l-1022 511z" />
<glyph unicode="&#x2b;" glyph-name="uni2B" d="M0 960l768-512-768-512v1024zM768 960h256v-1024h-256v1024z" />
<glyph unicode="&#x2c;" glyph-name="virgule" d="M640 576l-192-320-127.040 92.672-0.96 3.328-7.552 2.912 5.888-4.32-190.336-158.592v-64h768v64l-96 288-160 96zM288 544c52.992 0 96 42.976 96 96s-43.008 96-96 96-96-42.976-96-96 43.008-96 96-96zM992 896h-960c-17.664 0-32-14.336-32-32v-832c0-17.696 14.336-32 32-32h960c17.696 0 32 14.304 32 32v832c0 17.664-14.304 32-32 32zM960 96c0-17.696-14.304-32-32-32h-832c-17.664 0-32 14.304-32 32v704c0 17.664 14.336 32 32 32h832c17.696 0 32-14.336 32-32v-704z" />
<glyph unicode="&#x2d;" glyph-name="-" d="M0 343.808l321.344-206.624v149.152l-191.328 118.144 191.328 118.144v150.176l-321.344-207.68v-121.312zM389.312 64h110.592l162.048 768h-111.328l-161.312-768zM702.688 672.8v-150.176l191.264-118.144-191.264-118.112v-149.152l321.312 206.592v121.312l-321.312 207.68z" />
<glyph unicode="&#x2e;" glyph-name="uni2E" d="M1023.912 677.89c0-138.178-89.156-279.14-267.482-422.862v0c-124.048-99.754-277.874-192.116-461.54-277.15v0c6.68 34.084 9.994 66.696 9.994 97.776v0c0 80.258-26.222 153.236-78.68 218.882v0c-48.888 52.614-98.018 105.058-147.4 157.346v0c-52.444 63.874-78.716 133.8-78.716 209.816v0c0 74.628 25.91 136.020 77.704 184.184v0c51.806 48.128 116.404 72.206 193.744 72.242v0c52.938-0.036 102.068-13.43 147.4-40.148v0c49.382-29.382 80.742-67.588 94.064-114.62v0c54.266 103.13 134.32 154.73 240.114 154.766v0c71.156-0.036 133.404-22.498 186.74-67.346v0c56.050-47.104 84.056-104.734 84.056-172.888v0z" />
<glyph unicode="&#x2f;" glyph-name="uni2F" d="M1024-64l-768 512 768 512v-1024zM0 960h256v-1024h-256v1024z" />
<glyph unicode="&#x30;" glyph-name="0" d="M521.192 733.942c-320.56 0-519.816-285.988-519.816-285.988-17.328-8.666 173.304-285.892 511.196-285.892 329.224 0 511.138 285.892 511.138 285.892s-173.29 285.988-502.518 285.988zM515.128 629.894c119.562 0 216.624-83.384 216.624-186.206 0-102.818-97.062-186.298-216.624-186.298-119.56 0-216.528 83.478-216.528 186.298 0 102.824 96.968 186.206 216.528 186.206zM514.276 528.594c-50.216 0-90.97-38.788-90.97-86.612 0-47.82 40.754-86.608 90.97-86.608s90.97 38.788 90.97 86.608c0 47.824-40.754 86.612-90.97 86.612z" />
<glyph unicode="&#x31;" glyph-name="1" d="M1024 384.992v128l-152.992 63.744c-4.256 12-8.736 23.616-14.24 35.008l61.76 153.76-90.528 90.496-152.384-62.752c-11.616 5.632-23.488 10.368-35.744 14.752l-64.864 152h-128l-63.264-151.488c-12.736-4.512-24.992-9.248-37.12-15.008l-152.128 61.12-90.496-90.496 62.016-150.752c-6.016-12.384-10.88-24.992-15.52-38.016l-150.496-64.352v-128l150.624-62.752c4.64-12.992 9.632-25.632 15.616-38.016l-60.864-151.744 90.496-90.496 151.136 62.24c12.128-5.76 24.512-10.368 37.248-14.752l64.736-151.488h128l63.36 152.256c12.128 4.512 24.128 9.248 35.616 14.752l153.504-61.504 90.496 90.496-63.008 152.736c5.376 11.488 9.76 23.136 14.016 35.008l153.024 65.248zM511.008 256c-105.984 0-192 86.016-192 192s86.016 192 192 192 192-86.016 192-192-86.016-192-192-192z" />
<glyph unicode="&#x32;" glyph-name="2" d="M118 330.024q0 19.876 14.426 34.944t34.302 15.068h689.26q21.158 0 35.586-14.746t14.426-35.264q0-21.158-14.746-35.906l-343.668-343.668q-14.746-14.746-35.906-14.746t-35.264 14.746l-343.668 343.668q-14.746 14.746-14.746 35.906zM118 565.976q0 21.158 14.746 35.906l343.668 343.668q14.746 14.746 35.264 14.746 21.158 0 35.906-14.746l343.668-343.668q14.746-14.748 14.746-35.906 0-19.876-14.426-34.944t-35.586-15.068h-689.26q-19.876 0-34.302 14.746t-14.426 35.264z" />
<glyph unicode="&#x33;" glyph-name="3" d="M0.368 448c0 0 0 0 0 0 0 282.568 229.064 511.632 511.632 511.632s511.632-229.066 511.632-511.632c0 0 0 0 0 0s0 0 0 0c0-282.568-229.066-511.632-511.632-511.632s-511.632 229.066-511.632 511.632c0 0 0 0 0 0z" />
<glyph unicode="&#x34;" glyph-name="4" d="M997.96 959.826l25.784-38.856c-105.22-83.456-222.32-212.002-351.23-385.574v0c-128.88-173.624-227.296-335.774-295.178-486.522v0l-54.636-38.854c-45.22-33.224-75.98-57.812-92.24-73.844v0c-6.362 24.296-20.368 64.22-42.044 119.702v0l-20.648 50.522c-29.506 72.47-56.956 126.1-82.302 160.846v0c-25.344 34.688-53.73 57.756-85.21 69.218v0c53.156 59.026 101.87 88.564 146.114 88.608v0c37.882-0.044 79.968-54.212 126.188-162.442v0l22.876-54.41c83.154 147.636 189.906 291.13 320.254 430.546v0c130.388 139.388 257.788 246.402 382.268 321.060v0 0 0z" />
<glyph unicode="&#x35;" glyph-name="5" d="M1022.596 550.108l-656.44-612.642-364.746 340.36v408.42l364.746-339.292 656.44 611.572v-408.42z" />
<glyph unicode="&#x36;" glyph-name="6" d="M385.536 417.248c-5.696-8.224-12.64-28.832-20.864-33.888-8.224-5.024-17.504-8.544-27.808-10.496-10.336-1.984-21.024-2.848-32.064-2.528v-48.864h78.944v-193.472h63.712v319.872h-50.688c-1.792-12.192-5.536-22.4-11.232-30.624zM736 704h64c17.696 0 32 14.336 32 32v192c0 17.664-14.304 32-32 32h-64c-17.696 0-32-14.336-32-32v-192c0-17.664 14.304-32 32-32zM224 704h64c17.664 0 32 14.336 32 32v192c0 17.664-14.336 32-32 32h-64c-17.664 0-32-14.336-32-32v-192c0-17.664 14.336-32 32-32zM960 832h-64v-160c0-17.664-14.304-32-32-32h-192c-17.696 0-32 14.336-32 32v160h-256v-160c0-17.664-14.336-32-32-32h-192c-17.664 0-32 14.336-32 32v160h-64c-35.328 0-64-28.672-64-64v-768c0-35.328 28.672-64 64-64h896c35.328 0 64 28.672 64 64v768c0 35.328-28.672 64-64 64zM960 32c0-17.696-14.304-32-32-32h-832c-17.664 0-32 14.304-32 32v512c0 17.664 14.336 32 32 32h832c17.696 0 32-14.336 32-32v-512zM511.52 384.576h158.976c-29.952-36.864-54.048-74.4-72.48-118.56-18.4-44.192-20.416-90.176-23.968-137.984h68.192c0.288 21.312-6.24 44.32-1.632 68.992 4.672 24.672 11.264 49.024 19.744 73.12 8.544 24.064 19.136 46.752 31.872 68.064 12.672 21.344 27.296 39.328 43.744 53.952v55.744h-224.48v-63.328h0.032z" />
<glyph unicode="&#x37;" glyph-name="7" d="M1024 960v-1024h-1024l1024 1024z" />
<glyph unicode="&#x38;" glyph-name="8" d="M0 960.29h1024l-509.684-1024.58-514.316 1024.58z" />
<glyph unicode="&#x39;" glyph-name="9" d="M839.396 726.63c0-70.672-47.178-133.76-141.554-189.28v0c-51.142-30.218-76.74-69.956-76.74-119.216v0-115.344h-218.26v105.97c0 40.798 11.652 79.882 34.974 117.236v0c23.316 37.312 53.698 64.282 91.232 80.88v0c61.392 27.178 92.054 67.126 92.054 119.754v0c0 29.758-10.486 54.878-31.526 75.306v0c-21.042 20.414-46.906 30.622-77.604 30.652v0c-30.696-0.030-56.532-10.238-77.572-30.652v0c-21.036-20.428-31.558-45.548-31.558-75.306v0-62.922h-218.262v62.922c0 67.292 39.040 121.214 117.102 161.7v0c64.43 33.452 134.51 50.184 210.29 50.214v0c76.186-0.030 146.486-16.762 210.884-50.214v0c77.706-40.156 116.54-94.022 116.54-161.7v0zM621.102 90.876c0-29.8-10.486-54.908-31.526-75.322v0c-21.042-20.426-46.906-30.634-77.604-30.634v0c-30.696 0-56.532 10.208-77.572 30.634v0c-21.036 20.414-31.558 45.522-31.558 75.322v0c0 29.802 10.522 54.878 31.558 75.306v0c21.040 20.414 46.876 30.622 77.572 30.652v0c30.698-0.030 56.562-10.238 77.604-30.652v0c21.040-20.428 31.526-45.504 31.526-75.306v0z" />
<glyph unicode="&#x3a;" glyph-name="uni3A" d="M952.638 80.148h-881.304v213.908h881.304z" />
<glyph unicode="&#x3b;" glyph-name="uni3B" d="M980.964 27.854h-937.948v834.748h937.948zM902.778 103.74v607.090h-781.62v-607.090z" />
<glyph unicode="&#x3c;" glyph-name="uni3C" d="M980.964 331.4h-234.516v-303.546h-703.432v531.204h234.472v303.544h703.476zM902.778 407.286v303.544h-547.146v-151.772h390.816v-151.772zM668.304 103.74v303.546h-547.146v-303.546z" />
<glyph unicode="&#x3d;" glyph-name="uni3D" d="M59.27 12.162c-13.878 4.768-25.64 13.64-35.904 27.034-15.028 19.586-14.228-6.26-13.568 409.9l0.598 376.914 6.26 12.7c7.27 14.788 22.37 29.536 37.258 36.426l10.538 4.838h907.052l12.7-6.26c14.788-7.27 29.536-22.37 36.426-37.258l4.838-10.538v-762.948l-4.838-10.538c-6.89-14.926-21.642-29.988-36.426-37.258l-12.7-6.26-450.152-0.49c-431.498-0.404-450.698-0.23-462.082 3.738zM945.552 389.358v300.448h-855.216v-600.896h855.216v300.448zM407.14 331.362c-78.556 78.52-107.536 108.824-107.536 112.548v5.112h141.736l1.12 215h150.848l1.12-215h141.736v-5.044c0-3.69-29.226-34.304-107.5-112.514-59.11-59.076-108.964-107.432-110.772-107.432-1.842 0-51.696 48.356-110.84 107.432zM690.748 759.592c7.654 3.514 10.61 6.574 14.332 14.926 4.068 9.22 4.314 11.658 1.948 19.48-3.444 11.378-10.61 18.576-22.162 22.056-8.246 2.47-10.16 2.226-19.936-2.612-8.942-4.452-11.588-7.268-15.168-16.070-4.314-10.608-4.314-10.818 0.034-21.396 3.514-8.558 6.332-11.722 14.402-15.76 12.108-6.126 14.264-6.19 26.58-0.56zM801 759.592c7.654 3.514 10.61 6.574 14.332 14.926 4.068 9.22 4.314 11.658 1.948 19.48-3.444 11.378-10.61 18.576-22.162 22.056-8.246 2.47-10.16 2.226-19.936-2.612-8.942-4.452-11.588-7.268-15.168-16.070-4.314-10.608-4.314-10.818 0.034-21.396 3.514-8.558 6.332-11.722 14.402-15.76 12.108-6.126 14.264-6.19 26.58-0.56zM909.026 759.592c7.654 3.514 10.61 6.574 14.332 14.926 4.068 9.22 4.314 11.658 1.948 19.48-3.444 11.378-10.61 18.576-22.162 22.056-8.246 2.47-10.16 2.226-19.936-2.612-8.942-4.452-11.588-7.268-15.168-16.070-4.314-10.608-4.314-10.818 0.034-21.396 3.514-8.558 6.332-11.722 14.402-15.76 12.108-6.126 14.264-6.19 26.58-0.56zM585.438 785.512v12.352h-495.136v-24.704h495.136v12.352z" />
<glyph unicode="&#x3e;" glyph-name="uni3E" d="M445.108 226.862c-0.596 1.538-1.348 49.974-1.628 107.504l-0.564 104.682-69.224 0.596c-38.062 0.328-69.222 1.352-69.222 2.26 0 2.542 210.21 212.124 212.752 212.124 3.262 0 210.464-207.734 210.464-210.998 0-2.104-16.21-2.884-69.224-3.358l-69.224-0.596-2.2-213.88-70.414-0.596c-55.116-0.468-70.636 0.030-71.452 2.256zM12.742 695.394c-0.656 1.694-0.876 30.32-0.5 63.61 0.658 57.876 0.938 60.946 5.866 70.916 7.022 14.080 21.824 29.098 35.396 35.806l11.248 5.546h902.672l11.222-5.55c13.546-6.71 28.402-21.726 35.396-35.806 5.018-10.098 5.202-12.194 5.202-73.456v-63.020l-502.63-0.596c-425.87-0.466-502.84-0.082-503.872 2.55zM692.756 751.484c10.568 5.99 19.096 19.782 19.096 30.85 0 17.242-18.75 35.994-35.93 35.994-3.196 0-10.346-2.288-15.836-5.050-10.816-5.424-20.188-19.842-20.188-30.974s9.346-25.52 20.188-30.974c12.664-6.368 21.29-6.336 32.698 0.094zM803.112 751.422c10.126 5.672 19.156 20.786 19.096 31.946-0.094 16.274-19.34 34.958-35.962 34.958-17.21 0-35.93-18.782-35.93-35.994 0-17.56 18.372-35.93 35.93-35.93 4.354 0 11.914 2.288 16.896 5.018zM911.15 751.422c10.126 5.672 19.156 20.786 19.096 31.946-0.094 16.274-19.34 34.958-35.962 34.958-3.196 0-10.346-2.288-15.836-5.050-10.816-5.424-20.188-19.842-20.188-30.974s9.346-25.52 20.188-30.974c12.632-6.368 21.258-6.336 32.73 0.062zM587.004 782.332v16.896h-502.056l-0.658-14.39c-0.348-7.93-0.154-15.772 0.5-17.432 1.002-2.542 42.198-2.948 251.66-2.478l250.55 0.53v16.896z" />
<glyph unicode="&#x3f;" glyph-name="uni3F" d="M679.040 519.68h-334.080c-40.98 0-74.24-33.26-74.24-74.24s33.26-74.24 74.24-74.24h334.080c40.98 0 74.24 33.26 74.24 74.24s-33.26 74.24-74.24 74.24zM422.28 779.52l-40.2-222.72h259.84l-40.238 222.72h-179.402zM512 0l55.68 334.080h-111.36l55.68-334.080zM400.64 816.64h222.72c30.736 0 55.68 24.944 55.68 55.68s-24.944 55.68-55.68 55.68h-222.72c-30.772 0-55.68-24.944-55.68-55.68s24.908-55.68 55.68-55.68z" />
<glyph unicode="&#x40;" glyph-name="uni40" d="M623.196 373.154l-291.744 168.444c-35.784 20.7-81.602 8.422-102.264-27.362-20.662-35.822-8.384-81.602 27.4-102.264l291.706-168.444c35.822-20.7 81.602-8.422 102.264 27.4 20.736 35.784 8.46 81.564-27.362 102.226zM382.584 555.296l226.912-131.012 77.184 214.784-156.69 90.436-147.406-174.208zM215.3 3.552l217.066 263.67-97.248 56.148-119.818-319.818zM780.446 757.84l-194.458 112.296c-26.876 15.496-61.2 6.326-76.698-20.55-15.534-26.876-6.288-61.2 20.55-76.698l194.496-112.296c26.876-15.496 61.2-6.326 76.698 20.55s6.288 61.202-20.588 76.698z" />
<glyph unicode="&#x41;" glyph-name="A" d="M130 386l380-200 390 200v130l-390-200-380 200v-130zM130 836l380-200 390 200v-130l-390-200-380 200v130z" />
<glyph unicode="&#x42;" glyph-name="B" d="M60 956l452-448c149.334 149.334 298.666 298.666 448 448l60-60-448-450c147.108-152.124 298.35-300.35 448-450l-60-60-450 448c-152.124-147.108-300.35-298.35-450-448l-60 60c150 150 300 300 450 450l-450 450 60 60z" />
<glyph unicode="&#x43;" glyph-name="C" d="M1.998 67.824q0 25.566 19.258 44.824l337.344 338.672-337.344 332.032q-19.258 19.258-19.258 44.824t19.258 44.824l66.406 66.406q19.258 19.258 45.156 19.258t44.492-19.258l334.688-334.688 334.688 334.688q19.258 19.258 44.824 19.258t44.824-19.258l66.406-66.406q19.258-19.258 19.258-45.156t-19.258-44.492l-337.344-338.672 337.344-332.032q19.258-19.258 19.258-44.16t-19.258-44.16l-66.406-67.734q-19.258-19.258-45.156-19.258t-44.492 19.258l-334.688 335.352-336.016-335.352q-19.258-19.258-44.16-19.258t-44.16 19.258l-66.406 66.406q-19.258 19.258-19.258 44.824z" />
<glyph unicode="&#x44;" glyph-name="D" d="M86.156 545.090h0.002v-214.87c0-8.358-1.072-15.376-3.194-21.032-2.122-5.678-5.102-10.204-8.938-13.604-3.816-3.41-8.424-5.814-13.804-7.232-5.38-1.414-11.274-2.12-17.64-2.12-7.096 0-13.708 0.594-19.88 1.794-6.152 1.216-11.864 2.878-17.094 4.998v-30.608c3.386-1.562 8.456-3.074 15.186-4.57 6.73-1.484 14.992-2.304 24.766-2.438 11.468 0 21.82 1.476 31.016 4.456 9.216 2.98 17.116 7.406 23.716 13.28 6.58 5.892 11.648 13.212 15.186 22 3.536 8.79 5.316 19.054 5.316 30.824v219.122h-34.638zM144.58 260.722l115.83 284.384h29.964l115.83-284.384h-37.616l-33.958 85.65h-118.902l-33.958-85.65h-37.19zM275.070 500.888c-12.69-35.4-24.802-67.552-36.352-96.496l-10.632-26.772h94.254l-10.784 26.764c-11.676 29.444-23.544 61.618-35.648 96.524h-0.858zM612.8 375.692h-64.816v31.25h99.474v-137.52c-2.98-1.564-7.34-3.162-13.064-4.79-5.744-1.63-12.292-3.162-19.666-4.576s-15.272-2.55-23.696-3.408c-8.424-0.856-16.752-1.286-24.98-1.286-24.37 0-45.88 3.324-64.506 9.988s-34.262 16.076-46.866 28.272c-12.604 12.174-22.184 26.986-28.7 44.412s-9.774 36.844-9.774 58.236c0 23.234 3.568 44.346 10.72 63.338 7.134 18.99 17.484 35.214 31.036 48.676 13.55 13.46 29.928 23.844 49.112 31.134 19.204 7.288 40.348 10.942 63.434 10.942 6.236 0 12.474-0.246 18.712-0.74s12.174-1.2 17.854-2.122c5.658-0.922 10.908-2.026 15.732-3.29 4.822-1.286 8.852-2.616 12.11-4.030v-30.608c-8.508 2.83-18.282 5.198-29.322 7.126-11.060 1.908-22.098 2.862-33.158 2.862-16.16 0-31.562-2.454-46.222-7.34s-27.596-12.292-38.784-22.216c-11.19-9.924-20.126-22.346-26.772-37.306-6.666-14.94-9.988-32.484-9.988-52.61 0-19.698 2.764-36.696 8.294-51.012 5.53-14.318 13.364-26.148 23.478-35.494s22.402-16.258 36.82-20.716 30.482-6.698 48.128-6.698c8.178 0 16.256 0.428 24.22 1.286 7.962 0.856 15.032 2.056 21.208 3.622v84.578h0.002zM808.744 286.226c10.354 0 19.516 1.2 27.534 3.622 7.992 2.4 14.97 5.808 20.928 10.202s10.908 9.676 14.876 15.83c3.968 6.174 7.010 13 9.132 20.502 1.416 4.672 2.4 9.892 2.98 15.616 0.58 5.744 0.856 11.306 0.856 16.686v176.4h34.638v-175.564c0-6.666-0.366-13.61-1.072-20.834s-1.844-13.954-3.408-20.19c-2.702-10.482-6.732-20.19-12.11-29.108-5.378-8.938-12.388-16.654-21.048-23.17-8.64-6.516-19.020-11.618-31.132-15.304s-26.332-5.53-42.622-5.53c-15.582 0-29.258 1.694-41.024 5.102s-21.852 8.112-30.274 14.136c-8.446 6.022-15.338 13.182-20.718 21.476s-9.56 17.328-12.538 27.102c-2.122 7.094-3.656 14.662-4.576 22.742s-1.382 15.946-1.382 23.598v175.564h34.636v-176.402c0-6.366 0.46-12.936 1.384-19.666 0.92-6.73 2.368-12.85 4.36-18.38 4.95-13.74 13.214-24.584 24.768-32.516 11.552-7.93 26.824-11.894 45.792-11.894v0 0 0 0zM972.174 260.722v284.384h34.638v-284.384h-34.638z" />
<glyph unicode="&#x45;" glyph-name="E" d="M877.714 438.858v-73.144q0-30.286-18.572-51.714t-48.286-21.428h-402.286l167.43-168q21.714-20.572 21.714-51.428t-21.714-51.428l-42.856-43.428q-21.144-21.144-51.428-21.144-29.714 0-52 21.144l-372 372.572q-21.144 21.144-21.144 51.428 0 29.714 21.144 52l372 371.428q21.714 21.714 52 21.714 29.714 0 51.428-21.714l42.856-42.286q21.714-21.714 21.714-52t-21.714-52l-167.428-167.428h402.286q29.714 0 48.286-21.428t18.572-51.714z" />
<glyph unicode="&#x46;" glyph-name="F" d="M841.144 402.286q0-30.856-21.144-52l-372-372q-22.286-21.144-52-21.144-29.144 0-51.428 21.144l-42.856 42.856q-21.714 21.714-21.714 52t21.714 52l167.428 167.428h-402.286q-29.714 0-48.286 21.428t-18.572 51.714v73.144q0 30.286 18.572 51.714t48.286 21.428h402.286l-167.428 168q-21.714 20.572-21.714 51.428t21.714 51.43l42.856 42.856q21.714 21.714 51.428 21.714 30.286 0 52-21.714l372-372q21.144-20 21.144-51.428z" />
<glyph unicode="&#x47;" glyph-name="G" d="M920.572 396q0-29.144-21.144-51.428l-42.856-42.856q-21.714-21.714-52-21.714-30.856 0-51.428 21.714l-168 167.428v-402.286q0-29.714-21.428-48.286t-51.714-18.572h-73.142q-30.286 0-51.714 18.572t-21.428 48.286v402.286l-168-167.428q-20.57-21.714-51.43-21.714t-51.43 21.714l-42.856 42.856q-21.714 21.714-21.714 51.428 0 30.286 21.714 52l372 372q20 21.142 51.428 21.142 30.856 0 52-21.142l372-372q21.144-22.286 21.144-52z" />
<glyph unicode="&#x48;" glyph-name="H" d="M920.572 475.428q0-30.286-21.144-51.428l-372-372.572q-22.286-21.144-52-21.144-30.286 0-51.428 21.144l-372 372.572q-21.714 20.572-21.714 51.428 0 30.286 21.714 52l42.286 42.856q22.286 21.144 52 21.144 30.286 0 51.43-21.144l168-168v402.286q0 29.714 21.714 51.43t51.43 21.714h73.144q29.714 0 51.428-21.714t21.714-51.43v-402.286l168 168q21.144 21.144 51.428 21.144 29.714 0 52-21.144l42.856-42.856q21.144-22.286 21.144-52z" />
<glyph unicode="&#x49;" glyph-name="I" d="M498.174 813.886c-26.18-2.972-47.4-13.192-67.702-32.612-24.27-23.216-36.55-51.838-36.532-85.15 0.020-35.364 10.26-60.11 35.19-85.042 24.674-24.674 49.75-35.166 84.042-35.166 31.25 0 57.52 10.052 79.922 30.576 7.082 6.49 16.542 17.386 21.022 24.214 24.538 37.4 24.674 91.49 0.322 128.572-26.044 39.662-69.23 59.944-116.266 54.604zM54.814 632.538c-14.514-5.186-23.822-11.948-30.8-22.374-12.574-18.786-14.538-39.74-5.628-60.038 3.12-7.106 51.576-56.656 230.368-235.568 251.906-252.072 235.662-237.432 263.418-237.432 27.778 0 11.4-14.778 264.252 238.428 251.644 251.996 234.786 233.28 234.706 260.572-0.096 32.78-26.178 58.86-58.958 58.958-27.176 0.082-11.312 14.202-235.032-209.206-111.118-110.962-203.356-201.75-204.976-201.75s-93.404 90.412-203.968 200.916c-161.808 161.722-202.84 201.716-210.336 205.010-13.72 6.034-30.418 6.996-43.042 2.486z" />
<glyph unicode="&#x4a;" glyph-name="J" d="M498.174 82.114c-26.18 2.972-47.4 13.192-67.702 32.614-24.27 23.216-36.55 51.838-36.532 85.15 0.020 35.362 10.26 60.11 35.19 85.042 24.674 24.674 49.75 35.166 84.042 35.166 31.25 0 57.52-10.052 79.922-30.576 7.082-6.49 16.542-17.386 21.022-24.214 24.538-37.4 24.674-91.49 0.322-128.572-26.044-39.662-69.23-59.944-116.266-54.604zM54.814 263.462c-14.514 5.186-23.822 11.948-30.8 22.374-12.574 18.786-14.538 39.74-5.628 60.038 3.12 7.106 51.576 56.658 230.368 235.568 251.906 252.072 235.662 237.432 263.418 237.432 27.778 0 11.4 14.778 264.252-238.43 251.644-251.996 234.786-233.28 234.706-260.57-0.096-32.78-26.178-58.86-58.958-58.958-27.176-0.082-11.312-14.202-235.032 209.206-111.118 110.962-203.356 201.75-204.976 201.75s-93.404-90.412-203.968-200.916c-161.808-161.722-202.84-201.714-210.336-205.012-13.72-6.034-30.418-6.996-43.042-2.486z" />
<glyph unicode="&#x4b;" glyph-name="K" d="M877.886 434.174c-2.972-26.18-13.192-47.4-32.614-67.702-23.216-24.27-51.838-36.55-85.15-36.532-35.362 0.020-60.11 10.26-85.042 35.192-24.674 24.674-35.166 49.75-35.166 84.042 0 31.25 10.052 57.52 30.576 79.922 6.49 7.082 17.386 16.542 24.214 21.022 37.4 24.538 91.49 24.674 128.572 0.322 39.662-26.044 59.944-69.228 54.604-116.266zM696.538-9.184c-5.186-14.514-11.948-23.822-22.374-30.802-18.786-12.576-39.74-14.538-60.038-5.628-7.106 3.12-56.658 51.576-235.568 230.368-252.074 251.904-237.432 235.662-237.432 263.418 0 27.778-14.778 11.402 238.43 264.254 251.996 251.644 233.28 234.786 260.57 234.704 32.78-0.096 58.86-26.178 58.958-58.958 0.082-27.176 14.202-11.312-209.206-235.032-110.962-111.118-201.75-203.356-201.75-204.976s90.412-93.404 200.916-203.968c161.722-161.808 201.714-202.84 205.012-210.336 6.034-13.72 6.996-30.418 2.486-43.044z" />
<glyph unicode="&#x4c;" glyph-name="L" d="M146.114 434.174c2.972-26.18 13.194-47.4 32.612-67.702 23.216-24.27 51.838-36.55 85.148-36.532 35.362 0.020 60.11 10.26 85.042 35.192 24.674 24.674 35.166 49.75 35.166 84.042 0 31.25-10.050 57.52-30.576 79.922-6.488 7.082-17.386 16.542-24.214 21.022-37.4 24.538-91.49 24.674-128.574 0.322-39.662-26.044-59.944-69.228-54.604-116.266zM327.464-9.184c5.186-14.514 11.948-23.822 22.372-30.802 18.786-12.576 39.738-14.538 60.038-5.628 7.108 3.12 56.656 51.576 235.568 230.368 252.072 251.904 237.432 235.662 237.432 263.418 0 27.778 14.778 11.402-238.428 264.254-251.996 251.644-233.28 234.786-260.572 234.704-32.782-0.096-58.86-26.178-58.958-58.958-0.082-27.176-14.202-11.312 209.206-235.032 110.962-111.118 201.75-203.356 201.75-204.976s-90.412-93.404-200.916-203.968c-161.722-161.808-201.716-202.84-205.010-210.336-6.034-13.72-6.996-30.418-2.486-43.044z" />
<glyph unicode="&#x4d;" glyph-name="M" d="M808.96 563.2h-92.16v122.88c0 148.326-68.352 235.52-204.8 235.52-136.5 0-204.8-87.194-204.8-235.52v-20.48h102.4v41.012c0 73.984 40.806 112.59 102.4 112.59s102.4-38.606 102.4-112.59v-143.41h-409.6c-28.314 0-51.2-33.076-51.2-61.39v-399.412c0-28.11 21.914-58.318 48.692-66.918l61.286-19.814c26.83-8.55 71.782-15.668 99.942-15.668h296.96c28.11 0 73.114 7.116 99.89 15.718l61.236 19.814c26.828 8.55 48.794 38.758 48.794 66.866v399.412c0 28.314-33.178 61.39-61.44 61.39z" />
<glyph unicode="&#x4e;" glyph-name="N" d="M808.96 563.2h-92.16v122.88c0 148.326-68.352 235.52-204.8 235.52-136.5 0-204.8-87.194-204.8-235.52v-122.88h-102.4c-28.314 0-51.2-33.076-51.2-61.39v-399.412c0-28.11 21.914-58.318 48.692-66.918l61.286-19.814c26.83-8.55 71.782-15.668 99.942-15.668h296.96c28.11 0 73.114 7.116 99.89 15.718l61.236 19.814c26.828 8.55 48.794 38.758 48.794 66.866v399.412c0 28.314-33.178 61.39-61.44 61.39zM614.4 563.2h-204.8v143.41c0 73.984 40.806 112.59 102.4 112.59s102.4-38.606 102.4-112.59v-143.41z" />
<glyph unicode="&#x4f;" glyph-name="O" d="M404.351-7.241c-20.628 2.222-40.626 9.994-58.311 22.66-8.47 6.066-276.035 271.277-290.185 287.63-4.322 4.996-10.848 15.028-14.502 22.295-18.004 35.799-17.883 76.487 0.337 113.12 5.676 11.412 9.927 16.982 22.73 29.783s18.372 17.054 29.783 22.73c41.541 20.662 87.892 17.984 126.728-7.321 5.691-3.708 43.353-39.879 93.809-90.099 46.364-46.146 85.379-83.867 86.698-83.825s89.679 124.949 196.354 277.571c215.3 308.032 205.205 294.69 233.45 308.584 21.408 10.531 37.305 13.802 62.169 12.79 16.248-0.661 23.26-1.729 32.576-4.963 40.641-14.107 71.259-46.697 81.607-86.862 4.126-16.011 4.492-42.78 0.8-58.549-1.45-6.193-5.222-16.857-8.381-23.695-3.771-8.163-43.301-66.114-115.096-168.74-60.144-85.968-166.517-238.050-236.386-337.958s-130.324-185.74-134.349-190.735c-25.772-31.992-67.72-48.956-109.837-44.418z" />
<glyph unicode="&#x50;" glyph-name="P" d="M959.555 751.555v-688.109h-900.109v688.109h900.109zM748.564 594.422h-477.129v-371.416h477.129v371.416z" />
<glyph unicode="&#x51;" glyph-name="Q" d="M112.811 61.938h169.282l225.71 225.71 225.71-225.71h169.282l56.427 56.427v112.855l-225.71 225.71 225.71 225.71v112.855l-56.427 56.427h-169.282l-225.71-225.71-225.71 225.71h-169.282l-56.427-56.427v-112.855l225.71-225.71-225.71-225.71v-112.855z" />
<glyph unicode="&#x52;" glyph-name="R" d="M421.137 846.771l-42.104-42.119v-201.881h-269.896l-42.104-42.119v-463.305l42.104-42.119h505.246l42.104 42.119v201.881h269.896l42.104 42.119v463.305l-42.104 42.119h-505.246zM547.447 678.297h252.623v-210.594h-143.584v92.949l-42.104 42.119h-66.936v75.525zM235.447 434.297h143.586v-92.949l42.104-42.119h66.934v-75.525h-252.623v210.594z" />
<glyph unicode="&#x53;" glyph-name="S" d="M0 224l256 256 544-544 224 224-544 544 255.998 256h-735.998v-736z" />
<glyph unicode="&#x54;" glyph-name="T" d="M512 928l-480-480h288v-512h384v512h288z" />
<glyph unicode="&#x55;" glyph-name="U" d="M288 960l256-256-544-544 224-224 544 544 256-255.998v735.998h-736z" />
<glyph unicode="&#x56;" glyph-name="V" d="M992 448l-480 480v-288h-512v-384h512v-288z" />
<glyph unicode="&#x57;" glyph-name="W" d="M1024 672l-256-256-544 544-224-224 544-544-255.998-256h735.998v736z" />
<glyph unicode="&#x58;" glyph-name="X" d="M512-32l480 480h-288v512h-384v-512h-288z" />
<glyph unicode="&#x59;" glyph-name="Y" d="M736-64l-256 256 544 544-224 224-544-544-256 255.998v-735.998h736z" />
<glyph unicode="&#x5a;" glyph-name="Z" d="M32 448l480-480v288h512v384h-512v288z" />
<glyph unicode="&#x5b;" glyph-name="[" d="M128 832h768v-768h-768z" />
</font>
</defs>
</svg>
